<svg width="70" height="71" viewBox="0 0 70 71" fill="none" xmlns="http://www.w3.org/2000/svg">
<path d="M48.1076 70.0351C38.3523 70.0351 26.1505 63.8292 16.2687 53.8422C9.67803 47.431 4.57695 39.5234 1.51133 30.6656L1.38549 30.2481C-1.1814 21.7563 -0.158916 14.6544 4.26466 10.2463L14.4863 0L34.3552 19.8687L26.5429 27.6779C25.7683 28.4757 25.2906 29.5656 25.2906 30.767C25.2906 31.9684 25.7683 33.0584 26.544 33.8572L26.543 33.8561L36.1191 43.4322C36.9169 44.2221 38.0148 44.7101 39.2268 44.7101C40.4387 44.7101 41.5366 44.2221 42.3347 43.4319L50.1435 35.6231L70 55.492L59.7011 65.7169C56.8578 68.4002 53.0133 70.0496 48.7836 70.0496C48.546 70.0496 48.3096 70.0445 48.0743 70.0342L48.1078 70.0353L48.1076 70.0351ZM14.4924 6.56102L7.54202 13.5331C4.38195 16.6807 3.77339 22.1422 5.82144 28.9166C8.78173 37.4354 13.4898 44.6947 19.5503 50.5663L19.5647 50.5802C28.6064 59.7207 39.5448 65.4077 48.1076 65.4077C48.316 65.4213 48.5594 65.4292 48.8047 65.4292C51.7573 65.4292 54.445 64.2948 56.4558 62.4382L56.4481 62.4452L63.4571 55.4855L50.1372 42.1747L45.5963 46.7126C43.9608 48.3362 41.7078 49.3395 39.2205 49.3395C36.7331 49.3395 34.4801 48.3362 32.8441 46.7121L23.25 37.1242C21.6489 35.4872 20.6608 33.2447 20.6608 30.7715C20.6608 28.2982 21.6488 26.0559 23.2516 24.4172L27.7909 19.8779L14.4924 6.56102Z" fill="#283618"/>
</svg>
