<svg width="94" height="94" viewBox="0 0 94 94" fill="none" xmlns="http://www.w3.org/2000/svg">
<path d="M46.6919 93.3839C72.4792 93.3839 93.3839 72.4792 93.3839 46.6919C93.3839 20.9047 72.4792 0 46.6919 0C20.9047 0 0 20.9047 0 46.6919C0 72.4792 20.9047 93.3839 46.6919 93.3839Z" fill="#283618"/>
<path d="M62.9889 28.0698H30.3957C26.5381 28.0698 23.4102 31.1978 23.4102 35.0554V58.3375C23.4102 62.1951 26.5381 65.3231 30.3957 65.3231H62.9889C66.8464 65.3231 69.9744 62.1951 69.9744 58.3375V35.0463C69.9744 31.1887 66.8464 28.0698 62.9889 28.0698ZM62.0404 32.7208L48.3429 46.4092C47.4401 47.3211 45.9627 47.3302 45.0508 46.4183L45.0417 46.4092L31.3441 32.7208H62.0404ZM65.3235 58.3375C65.3235 59.6234 64.2838 60.663 62.998 60.663H30.3957C29.1099 60.663 28.0702 59.6234 28.0702 58.3375V36.0038L41.7586 49.6922C44.4854 52.4189 48.8992 52.4189 51.6351 49.6922L65.3235 36.0038V58.3375Z" fill="#FEFAE0"/>
</svg>
