<svg width="94" height="94" viewBox="0 0 94 94" fill="none" xmlns="http://www.w3.org/2000/svg">
<path d="M46.6919 93.3839C72.4792 93.3839 93.3839 72.4792 93.3839 46.6919C93.3839 20.9047 72.4792 0 46.6919 0C20.9047 0 0 20.9047 0 46.6919C0 72.4792 20.9047 93.3839 46.6919 93.3839Z" fill="#283618"/>
<path d="M46.6923 23.3462C40.3543 23.3462 39.5609 23.3735 37.0712 23.483C34.5816 23.6015 32.8945 23.9937 31.408 24.5682C29.8759 25.161 28.5718 25.9635 27.2677 27.2585C25.9637 28.5534 25.1703 29.8575 24.5775 31.3987C24.003 32.8852 23.6108 34.5814 23.4923 37.0619C23.3737 39.5516 23.3555 40.345 23.3555 46.683C23.3555 53.0211 23.3828 53.8145 23.4923 56.3041C23.6108 58.7846 24.003 60.4809 24.5775 61.9674C25.1703 63.4994 25.9728 64.8035 27.2677 66.1076C28.5627 67.4026 29.8668 68.2051 31.408 68.7979C32.8945 69.3724 34.5907 69.7645 37.0712 69.8831C39.5609 70.0017 40.3543 70.0199 46.6923 70.0199C53.0304 70.0199 53.8238 69.9925 56.3134 69.8831C58.7939 69.7645 60.4901 69.3724 61.9766 68.7979C63.5087 68.2051 64.8128 67.4026 66.1169 66.1076C67.4119 64.8126 68.2144 63.5086 68.8072 61.9674C69.3817 60.4809 69.7738 58.7846 69.8924 56.3041C70.0109 53.8145 70.0292 53.0211 70.0292 46.683C70.0292 40.345 70.0018 39.5516 69.8924 37.0619C69.7738 34.5814 69.3817 32.8852 68.8072 31.3987C68.2144 29.8666 67.4119 28.5626 66.1169 27.2585C64.8219 25.9635 63.5178 25.161 61.9766 24.5682C60.4901 23.9937 58.7939 23.6015 56.3134 23.483C53.8238 23.3735 53.0304 23.3462 46.6923 23.3462ZM46.6923 27.5503C52.9209 27.5503 53.6687 27.5776 56.131 27.6871C58.4109 27.7965 59.642 28.1704 60.4628 28.4987C61.5571 28.9182 62.3323 29.4289 63.153 30.2405C63.9647 31.0613 64.4754 31.8365 64.8949 32.9308C65.2141 33.7516 65.5971 34.9827 65.6974 37.2626C65.8068 39.7248 65.8342 40.4635 65.8342 46.7013C65.8342 52.939 65.8068 53.6777 65.6883 56.14C65.5697 58.4199 65.1867 59.651 64.8675 60.4718C64.4298 61.5661 63.9373 62.3413 63.1166 63.162C62.3049 63.9736 61.5115 64.4843 60.4354 64.9038C59.6147 65.223 58.3653 65.606 56.0854 65.7064C53.6049 65.8158 52.8753 65.8432 46.6285 65.8432C40.3816 65.8432 39.652 65.8158 37.1715 65.6972C34.8917 65.5787 33.6423 65.1957 32.8215 64.8765C31.7181 64.4387 30.952 63.9463 30.1404 63.1255C29.3196 62.3139 28.7998 61.5205 28.3894 60.4444C28.0703 59.6236 27.6872 58.3743 27.5687 56.0944C27.4775 53.6412 27.4501 52.8843 27.4501 46.6739C27.4501 40.4544 27.4775 39.6975 27.5687 37.217C27.6872 34.9371 28.0611 33.6877 28.3894 32.867C28.7998 31.7544 29.3196 30.9975 30.1404 30.1767C30.952 29.3651 31.7181 28.8361 32.8215 28.4258C33.6423 28.1066 34.8643 27.7236 37.1442 27.605C39.6247 27.5138 40.3543 27.4865 46.6011 27.4865L46.6923 27.5503ZM46.6923 34.7C40.0715 34.7 34.7001 40.0714 34.7001 46.6922C34.7001 53.3129 40.0715 58.6843 46.6923 58.6843C53.3131 58.6843 58.6845 53.3129 58.6845 46.6922C58.6845 40.0714 53.3131 34.7 46.6923 34.7ZM46.6923 54.4711C42.397 54.4711 38.9134 50.9875 38.9134 46.6922C38.9134 42.3969 42.397 38.9132 46.6923 38.9132C50.9876 38.9132 54.4713 42.3969 54.4713 46.6922C54.4713 50.9875 50.9876 54.4711 46.6923 54.4711ZM61.9584 34.2349C61.9584 35.7852 60.6999 37.0346 59.1587 37.0346C57.6084 37.0346 56.359 35.7761 56.359 34.2349C56.359 32.6937 57.6175 31.4352 59.1587 31.4352C60.6999 31.4261 61.9584 32.6846 61.9584 34.2349Z" fill="#FEFAE0"/>
</svg>
