<svg width="172" height="100" viewBox="0 0 172 100" fill="none" xmlns="http://www.w3.org/2000/svg">
<path d="M103.32 65V31.4H107.88V65H103.32ZM125.035 65L112.699 32.6L117.163 30.872L127.723 60.008L138.331 31.016L142.459 32.6L130.171 65H125.035ZM167.189 65.48L163.445 55.88H147.893L144.149 65.384L140.261 63.8L153.413 31.4H158.405L171.365 63.8L167.189 65.48ZM149.333 52.04H161.957L155.669 35.912L149.333 52.04Z" fill="#FEFAE0"/>
<path d="M50 0L93.3013 75H6.69873L50 0Z" fill="#283618"/>
<path d="M50 90.2563L83.0867 30.2563H16.9134L50 90.2563Z" fill="#B7B375"/>
<line x1="49.5" y1="38" x2="49.5" y2="65" stroke="#283618" stroke-width="5"/>
<path d="M42.5 47.5L49.5 65.5L56 47.5" stroke="#283618" stroke-width="5"/>
<line x1="43" y1="35.5" x2="56" y2="35.5" stroke="#283618" stroke-width="5"/>
</svg>
