<svg width="50" height="33" viewBox="0 0 50 33" fill="none" xmlns="http://www.w3.org/2000/svg">
<path d="M10.5055 9.60439H0V6.30767H10.5055V9.60439ZM10.5055 18.022H2.10985V14.7252H10.5055V18.022ZM10.5055 26.4395H4.19782V23.1428H10.5055V26.4395ZM50 32.7472H10.5055V29.4505H46.7033V3.29672H10.5055V0H50V32.7472ZM29.4286 22.4594L9.35382 2.82637L11.6483 0.470347L29.4199 17.8483L47.1912 0.470445L49.4967 2.82647L29.4286 22.4594ZM11.6703 32.2637L9.34064 29.9341L24.0659 15.2088L26.3956 17.5384L11.6703 32.2637ZM47.1868 32.2637L32.4615 17.5385L34.7912 15.2088L49.5164 29.9341L47.1868 32.2637Z" fill="#283618"/>
</svg>
