<svg width="77" height="68" viewBox="0 0 77 68" fill="none" xmlns="http://www.w3.org/2000/svg">
<path d="M72.1116 8.48372H67.8698V4.24186C67.8698 1.90884 65.9609 0 63.6279 0H4.24186C1.90884 0 0 1.90884 0 4.24186V55.1442C0 57.4772 1.90884 59.386 4.24186 59.386H8.48372V63.6279C8.48372 65.9609 10.3926 67.8698 12.7256 67.8698H72.1116C74.4446 67.8698 76.3535 65.9609 76.3535 63.6279V12.7256C76.3535 10.3926 74.4446 8.48372 72.1116 8.48372ZM8.48372 12.7256V55.1442H4.25034C4.2461 55.1399 4.2461 55.1399 4.24186 55.1357V4.25034L4.25034 4.24186H63.6194C63.6237 4.2461 63.6236 4.2461 63.6279 4.25034V8.48372H12.7256C10.3926 8.48372 8.48372 10.3926 8.48372 12.7256ZM72.1116 63.6194C72.1074 63.6237 72.1074 63.6236 72.1031 63.6279H12.7341C12.7298 63.6236 12.7298 63.6237 12.7256 63.6194V12.7341L12.7341 12.7256H72.1031C72.1074 12.7298 72.1074 12.7298 72.1116 12.7341V63.6194Z" fill="#283618"/>
<path d="M63.6279 23.3303C63.6279 26.8426 60.7774 29.6931 57.2651 29.6931C53.7529 29.6931 50.9023 26.8426 50.9023 23.3303C50.9023 19.8181 53.7529 16.9675 57.2651 16.9675C60.7774 16.9675 63.6279 19.8181 63.6279 23.3303Z" fill="#283618"/>
<path d="M67.8701 59.386H16.9678V50.9023L31.8143 25.4512L48.7817 46.6605H53.0236L67.8701 33.9349V59.386Z" fill="#283618"/>
</svg>
