<svg width="94" height="94" viewBox="0 0 94 94" fill="none" xmlns="http://www.w3.org/2000/svg">
<path d="M46.6919 93.3839C72.4792 93.3839 93.3839 72.4792 93.3839 46.6919C93.3839 20.9047 72.4792 0 46.6919 0C20.9047 0 0 20.9047 0 46.6919C0 72.4792 20.9047 93.3839 46.6919 93.3839Z" fill="#283618"/>
<path d="M53.4224 24.7593H39.962C27.6689 24.7593 24.7598 27.6684 24.7598 39.9615V53.431C24.7598 65.7242 27.6689 68.6333 39.962 68.6333H53.4315C65.7246 68.6333 68.6338 65.7242 68.6338 53.431V39.9615C68.6246 27.6684 65.6882 24.7593 53.4224 24.7593ZM60.1709 56.0575H56.979C55.7752 56.0575 55.4014 55.0999 53.2309 52.9021C51.3432 51.0782 50.5042 50.832 50.0391 50.832C49.3916 50.832 49.2001 51.0144 49.2001 51.9172V54.799C49.2001 55.5741 48.9539 56.0392 46.9111 56.0392C43.5369 56.0392 39.7887 53.9965 37.1623 50.1845C33.2044 44.6125 32.1192 40.4357 32.1192 39.5694C32.1192 39.1043 32.3016 38.6757 33.2044 38.6757H36.3963C37.1988 38.6757 37.5089 39.0496 37.8189 39.9159C39.3966 44.4666 42.0321 48.4609 43.1082 48.4609C43.5095 48.4609 43.6919 48.2785 43.6919 47.2571V42.5515C43.5642 40.381 42.4243 40.1986 42.4243 39.4235C42.4243 39.0496 42.7343 38.6848 43.2268 38.6848H48.2425C48.9265 38.6848 49.1727 39.0587 49.1727 39.8612V46.2084C49.1727 46.8924 49.4828 47.1386 49.6652 47.1386C50.0664 47.1386 50.4039 46.8923 51.1517 46.1445C53.4407 43.5728 55.0822 39.615 55.0822 39.615C55.301 39.1499 55.6658 38.7213 56.4775 38.7213H59.6693C60.6268 38.7213 60.8457 39.2137 60.6268 39.8977C60.2256 41.7581 56.3224 47.2662 56.3224 47.2662C55.985 47.8225 55.8573 48.0688 56.3224 48.6889C56.6598 49.154 57.7815 50.1115 58.5202 50.9779C59.879 52.5282 60.9369 53.8232 61.2105 54.726C61.5388 55.5924 61.0737 56.0575 60.1709 56.0575Z" fill="#FEFAE0"/>
</svg>
